<svg version="1.0" xmlns="http://www.w3.org/2000/svg" width="20" height="20" viewBox="0 0 20 20" preserveAspectRatio="xMidYMid meet">
<g transform="translate(0.000000,20.000000) scale(0.032258,-0.031250)">
<path fill="#000000" d="M53 630 c-52 -21 -54 -37 -51 -325 l3 -267 24 -19 c22 -18 40 -19
305 -17 l281 3 2 50 c3 43 -11 84 -95 294 -55 134 -108 255 -120 268 -20 22
-25 23 -174 22 -84 0 -163 -4 -175 -9z m304 -295 c29 -71 52 -139 50 -150 -2
-18 -11 -20 -113 -23 -147 -4 -144 -7 -144 146 0 169 -2 163 84 160 l71 -3 52
-130z"/>
</g>
</svg>